<?xml version="1.0" standalone="no"?>
<!DOCTYPE svg PUBLIC "-//W3C//DTD SVG 20010904//EN"
 "http://www.w3.org/TR/2001/REC-SVG-20010904/DTD/svg10.dtd">
<svg version="1.0" xmlns="http://www.w3.org/2000/svg"
 width="1440.000000pt" height="820.000000pt" viewBox="0 0 1440.000000 820.000000"
 preserveAspectRatio="xMidYMid meet">

<g transform="translate(0.000000,820.000000) scale(0.100000,-0.100000)"
fill="#000000" stroke="none">
<path d="M12895 7360 c-71 -4 -209 -10 -305 -14 -96 -4 -323 -13 -505 -21
-181 -8 -505 -22 -720 -30 -482 -19 -570 -27 -638 -60 -29 -14 -63 -35 -77
-48 -24 -21 -25 -26 -20 -112 l5 -90 17 30 c24 45 77 92 128 114 50 21 113 28
340 36 85 3 193 7 240 10 47 2 150 7 230 10 80 3 298 12 485 20 187 8 455 19
595 25 140 6 329 12 420 13 155 2 168 1 212 -21 26 -13 63 -41 82 -62 71 -79
66 177 66 -3069 0 -2921 0 -2926 -21 -2971 -25 -55 -71 -105 -124 -133 -33
-17 -62 -22 -161 -25 l-121 -4 -8 279 c-4 153 -8 312 -9 353 -2 42 -7 84 -13
94 -8 14 -14 5 -32 -51 -37 -111 -139 -379 -199 -522 l-57 -133 -215 7 c-236
7 -254 9 -246 32 4 8 34 106 67 217 33 110 86 266 116 346 69 182 77 209 103
339 34 172 42 205 55 226 6 11 18 38 25 60 7 22 17 45 22 51 5 7 8 16 7 20 -1
5 1 16 4 24 16 36 60 172 82 250 14 47 53 173 89 280 35 107 81 249 101 315
20 66 44 140 54 165 17 43 19 45 57 43 l39 -2 -27 17 c-16 9 -28 20 -28 24 0
5 -16 8 -35 8 -21 0 -36 5 -36 13 -4 40 5 186 13 207 5 14 19 102 30 195 11
94 24 202 29 240 5 39 17 140 27 225 10 85 22 154 28 154 5 -1 36 -4 69 -7
l60 -6 -50 15 c-27 7 -60 14 -72 14 -22 0 -23 4 -23 73 0 85 -9 147 -21 147
-5 0 -9 -10 -10 -22 0 -22 -1 -22 -9 -3 -5 11 -11 37 -15 58 -3 20 -10 37 -15
37 -12 0 -12 -3 0 -34 14 -37 24 -232 12 -239 -5 -4 -23 8 -40 26 -30 31 -30
33 -19 80 8 39 8 50 -2 57 -7 4 -9 9 -4 11 6 2 13 23 16 47 4 35 2 44 -14 52
-10 6 -19 17 -19 25 0 17 -79 125 -91 125 -14 0 -10 -34 6 -57 11 -15 12 -24
4 -29 -14 -8 -28 13 -30 46 -4 76 -3 118 4 113 12 -7 7 11 -9 32 -13 17 -16
18 -25 5 -9 -13 -10 -12 -5 2 3 10 0 20 -5 24 -6 3 -9 18 -6 32 3 14 -1 43 -9
65 -8 22 -14 49 -14 61 0 12 -6 30 -12 39 -11 14 -13 6 -13 -53 0 -59 2 -68
13 -53 8 12 12 13 12 3 0 -7 -6 -21 -13 -29 -19 -22 -64 -147 -73 -201 -7 -43
-8 -44 -14 -15 -3 17 -3 41 2 55 61 198 71 271 55 425 -6 54 -5 56 4 20 6 -22
13 -60 17 -85 6 -38 9 -41 13 -19 8 36 -8 168 -21 184 -6 8 -13 30 -15 50 -2
21 -15 60 -30 88 -16 31 -22 53 -16 55 6 2 11 8 11 14 0 6 -6 8 -14 5 -19 -7
-36 12 -36 40 0 24 9 27 48 17 21 -6 21 -7 5 -21 -16 -13 -16 -13 5 -3 22 11
30 30 13 30 -5 0 -7 9 -4 19 4 18 -19 35 -39 28 -4 -1 -14 7 -23 18 -9 11 -14
14 -10 8 8 -17 2 -16 -41 2 -20 8 -41 12 -48 8 -6 -3 -8 -3 -4 2 4 4 3 16 -3
26 -9 18 -8 18 23 -1 40 -24 64 -25 72 -4 5 13 9 14 21 4 8 -6 20 -10 27 -7 7
3 -4 12 -25 21 -21 9 -35 21 -32 26 8 13 65 -16 87 -44 10 -11 18 -34 18 -49
0 -16 4 -26 10 -22 14 9 13 -8 -2 -23 -8 -8 -8 -12 -1 -12 6 0 14 7 17 16 4 9
9 14 13 11 9 -10 -18 -67 -32 -67 -7 0 -16 -7 -19 -16 -11 -30 36 9 57 46 23
42 16 75 -28 123 -19 20 -31 37 -28 37 3 0 0 7 -7 15 -7 8 -18 15 -24 15 -6 0
-4 -5 4 -10 8 -5 11 -10 5 -10 -5 0 -23 9 -40 21 -28 19 -28 20 -5 14 19 -5
15 0 -13 18 -40 25 -47 39 -98 197 -12 36 -28 77 -35 92 -19 36 -105 133 -118
133 -6 0 -17 6 -24 13 -16 14 -36 16 -27 2 4 -6 -11 1 -31 15 -21 14 -44 23
-52 20 -8 -3 -24 1 -36 8 -25 16 -128 48 -121 38 2 -4 35 -20 72 -36 37 -16
94 -46 126 -68 56 -39 71 -55 42 -43 -21 8 -19 3 18 -37 19 -19 40 -56 47 -81
12 -45 32 -75 25 -39 -2 10 -7 35 -10 55 -3 23 -23 58 -51 93 -40 48 -42 55
-23 52 13 -2 25 -10 28 -18 2 -8 33 -53 68 -100 34 -48 63 -90 63 -95 0 -4
-16 15 -36 42 l-35 49 7 -72 c8 -86 -4 -95 -30 -23 -10 28 -22 50 -27 50 -4 0
-6 -8 -2 -17 3 -10 3 -15 -1 -12 -4 4 -8 16 -11 27 -2 11 -8 29 -14 39 -10 20
-94 99 -127 121 -17 11 -17 11 4 2 38 -18 24 4 -21 31 -38 24 -169 78 -200 83
-6 1 -18 5 -24 9 -7 5 -13 5 -13 0 0 -4 -5 0 -11 10 -11 18 -45 22 -68 8 -11
-7 -11 -13 3 -32 9 -13 16 -20 16 -17 0 4 16 -4 36 -17 49 -33 58 -31 38 6 -8
17 -11 28 -5 24 6 -3 17 -21 25 -38 17 -38 93 -123 102 -114 10 9 65 -64 57
-76 -3 -5 -2 -7 4 -4 10 6 41 -22 58 -52 5 -9 4 -12 -3 -7 -18 11 -15 2 28
-85 22 -44 54 -124 71 -177 17 -53 51 -142 74 -197 25 -57 46 -124 50 -157 3
-31 12 -62 20 -68 9 -8 12 -23 8 -48 -6 -34 -5 -36 10 -22 43 40 43 40 44 -37
0 -41 6 -94 13 -117 10 -37 9 -48 -4 -75 -9 -17 -23 -31 -31 -31 -11 0 -10 5
5 20 22 22 26 66 9 90 -9 13 -10 13 -6 -1 4 -11 -3 -20 -19 -28 -21 -9 -24
-17 -24 -64 0 -81 -18 -161 -61 -275 -48 -126 -70 -170 -143 -286 -55 -87 -69
-119 -43 -98 14 12 17 0 17 -85 0 -49 1 -52 30 -58 16 -4 30 -13 30 -21 0 -8
4 -14 9 -14 4 0 13 -15 19 -32 5 -18 10 -26 11 -17 1 21 31 33 45 19 7 -7 5
-10 -7 -10 -9 0 -17 -7 -17 -16 0 -18 -97 -142 -152 -195 -21 -19 -50 -42 -65
-49 -15 -8 -35 -20 -44 -27 -18 -15 -169 -33 -278 -33 l-75 0 -72 55 c-40 31
-83 70 -97 89 -25 31 -36 93 -24 126 11 30 15 143 6 167 -6 16 -5 34 4 55 l13
31 -151 148 c-145 144 -213 229 -199 251 4 6 3 8 -3 5 -6 -4 -32 40 -61 101
-90 189 -95 206 -97 320 -2 56 1 104 5 107 4 3 6 33 4 67 -1 34 0 74 3 89 7
37 71 103 123 126 8 4 18 11 21 16 3 5 43 8 89 8 45 0 92 5 104 11 11 7 35 11
53 11 39 -2 35 14 -10 43 -27 18 -44 21 -107 19 -79 -3 -120 -12 -120 -26 0
-5 -6 -9 -13 -9 -42 0 -109 -56 -143 -122 l-18 -33 -7 51 c-3 28 -11 66 -17
85 -17 56 -22 98 -23 205 -2 113 8 154 57 229 55 85 78 112 137 160 31 26 55
52 54 57 -1 6 13 15 31 20 18 5 35 15 39 23 3 8 9 15 13 15 14 0 90 82 90 97
0 7 10 14 23 15 42 3 52 5 79 16 15 6 35 9 43 6 8 -4 15 -2 15 4 0 5 -12 13
-27 17 -21 5 -24 8 -13 15 17 11 56 3 88 -18 12 -8 25 -12 28 -9 3 3 -13 15
-36 27 -56 28 -47 33 19 10 43 -14 60 -27 83 -61 16 -24 34 -46 40 -48 13 -5
2 16 -25 47 -20 21 -20 22 -1 22 16 0 17 2 4 11 -11 8 -8 9 15 3 37 -9 95 -15
95 -9 0 2 -15 12 -32 23 -34 19 -123 41 -168 40 -14 -1 -43 0 -65 1 l-40 3 30
13 c23 11 26 14 10 15 -34 1 5 20 41 20 17 0 37 7 44 15 7 9 29 15 52 15 25 0
37 4 32 11 -3 6 -18 8 -33 5 -22 -5 -24 -5 -10 6 14 12 15 15 1 27 -23 22 -81
24 -106 4 l-21 -18 20 23 c16 20 17 25 5 32 -8 6 -20 10 -27 10 -6 0 -13 4
-15 10 -10 31 -210 56 -263 34 -17 -7 -26 -13 -21 -14 5 0 -12 -14 -37 -31
-26 -17 -47 -34 -47 -38 0 -4 -14 -15 -31 -25 -24 -14 -28 -21 -18 -28 11 -8
10 -9 -3 -4 -12 3 -31 -8 -58 -34 -23 -22 -44 -40 -49 -40 -4 0 -24 -28 -44
-62 -20 -35 -54 -83 -76 -108 -65 -73 -188 -240 -216 -294 -21 -40 -22 -46 -6
-26 24 30 28 20 5 -15 -9 -14 -20 -22 -25 -19 -5 3 -9 2 -8 -3 1 -4 -1 -19 -5
-33 -3 -14 -5 -159 -4 -324 l3 -298 54 53 55 54 -56 -65 -56 -66 -3 -319 c-2
-176 0 -326 4 -332 4 -7 3 -21 -3 -32 -12 -24 -14 -949 -1 -969 6 -10 10 -4
16 20 l7 33 14 -45 c8 -25 21 -88 29 -140 9 -52 23 -120 32 -150 17 -59 26
-278 12 -301 -10 -16 -33 1 -52 39 -14 29 -57 50 -57 27 0 -7 9 -17 20 -20 32
-10 22 -32 -12 -26 -5 0 -8 -4 -8 -9 0 -6 9 -10 20 -10 21 0 70 -47 70 -67 0
-7 5 -13 10 -13 6 0 10 -12 10 -27 0 -74 58 -288 110 -408 53 -122 153 -426
175 -535 4 -19 11 -39 15 -45 17 -23 80 -206 95 -275 32 -149 46 -192 106
-328 34 -75 76 -171 94 -212 45 -105 115 -287 115 -301 0 -9 -50 -10 -197 -5
-109 4 -226 9 -261 12 -59 6 -65 9 -86 43 -57 90 -185 355 -213 441 -57 174
-63 235 -64 718 -2 342 -4 411 -11 317 -9 -132 -4 -1307 6 -1395 5 -36 4 -50
-2 -41 -8 11 -11 9 -17 -8 -8 -27 4 -49 17 -30 5 9 6 -9 2 -46 -6 -58 -5 -61
23 -81 100 -74 167 -88 453 -99 272 -9 1347 -54 1615 -67 390 -18 540 -17 600
6 72 27 137 78 178 138 73 106 67 -155 65 3159 l-3 2984 -24 60 c-33 82 -115
164 -196 195 -70 27 -217 34 -440 20z m-1251 -555 c-10 -8 -23 -14 -29 -14 -5
0 -1 6 9 14 11 8 24 15 30 15 5 0 1 -7 -10 -15z m1 -35 c-10 -11 -25 -20 -34
-20 -10 0 -5 8 14 20 38 25 43 25 20 0z m-415 -5 c0 -2 -9 -9 -20 -15 -12 -6
-20 -7 -20 -1 0 5 8 12 18 14 9 3 18 5 20 6 1 0 2 -1 2 -4z m101 -12 c12 -16
12 -17 -2 -5 -14 10 -17 9 -22 -8 -3 -13 -14 -20 -29 -20 -12 -1 -34 -7 -48
-15 -39 -22 -48 -18 -16 8 16 12 36 30 45 40 8 9 25 17 37 17 12 0 28 -8 35
-17z m42 -46 c4 -10 -2 -13 -19 -9 -13 2 -21 8 -18 13 8 14 31 11 37 -4z
m-193 -26 c0 -5 -7 -12 -16 -15 -14 -5 -15 -4 -4 9 14 17 20 19 20 6z m126
-32 c4 -8 9 -7 16 2 7 11 11 11 15 2 2 -7 11 -13 18 -13 8 0 17 -4 20 -10 4
-6 -1 -7 -12 -3 -16 6 -16 5 -4 -11 13 -16 12 -17 -11 -11 -15 4 -35 2 -46 -4
-13 -7 -29 -8 -45 -2 -26 10 -53 -1 -43 -17 6 -10 -13 -21 -54 -29 -13 -2 -27
-8 -30 -12 -6 -9 -37 -22 -62 -27 -25 -5 -95 -43 -108 -59 -7 -8 9 -3 34 10
25 13 46 23 46 21 0 -7 -115 -91 -125 -91 -5 0 -14 -9 -20 -20 -35 -67 -103
-174 -126 -199 -15 -17 -45 -60 -66 -98 -40 -72 -49 -80 -49 -48 0 10 2 17 5
15 2 -3 13 12 23 32 33 61 210 317 228 330 16 11 35 57 32 75 -1 3 6 12 16 20
15 12 16 11 3 -4 -9 -12 -10 -18 -2 -18 11 0 15 13 12 38 -1 6 10 17 24 22 14
5 25 16 25 24 0 25 66 69 95 64 13 -3 22 -1 19 3 -3 5 10 9 28 10 18 1 44 5
58 9 37 12 78 11 86 -1z m-89 -166 c-9 -2 -15 -9 -12 -14 4 -5 -3 -9 -14 -9
-11 0 -22 -4 -26 -9 -3 -5 -19 -12 -36 -16 -17 -4 -28 -9 -25 -12 6 -7 -97
-71 -104 -66 -3 3 6 13 20 25 14 11 18 17 10 13 -8 -4 -4 3 10 14 29 24 158
81 180 80 10 -1 10 -3 -3 -6z m970 -242 c39 -42 67 -78 62 -80 -6 -1 -11 -1
-12 1 -1 2 -58 62 -127 132 -103 107 -114 120 -60 76 36 -29 97 -87 137 -129z
m88 129 c11 -18 -10 -10 -40 16 l-30 25 32 -15 c17 -9 35 -20 38 -26z m-1335
7 c0 -2 -10 -12 -22 -23 l-23 -19 19 23 c18 21 26 27 26 19z m1266 -88 c8 -13
-21 1 -51 26 -19 15 -18 15 12 1 17 -9 35 -21 39 -27z m62 -39 c32 -30 27 -38
-5 -9 -16 13 -30 25 -32 27 -2 1 0 2 5 2 6 0 20 -9 32 -20z m-1381 -12 c-3 -8
-6 -5 -6 6 -1 11 2 17 5 13 3 -3 4 -12 1 -19z m1333 -3 c13 -14 21 -25 18 -25
-2 0 -15 11 -28 25 -13 14 -21 25 -18 25 2 0 15 -11 28 -25z m-1343 -37 c-3
-8 -6 -5 -6 6 -1 11 2 17 5 13 3 -3 4 -12 1 -19z m-30 -110 c-2 -13 -4 -3 -4
22 0 25 2 35 4 23 2 -13 2 -33 0 -45z m1483 -31 c0 -12 0 -11 -24 28 l-17 30
20 -24 c12 -13 21 -28 21 -34z m-1510 11 c-3 -58 -1 -75 9 -59 6 9 8 2 7 -20
-1 -19 1 -47 6 -63 5 -19 4 -32 -3 -37 -8 -4 -8 -8 -1 -13 6 -4 8 -14 5 -23
-4 -11 -3 -14 5 -9 8 5 12 -1 12 -18 0 -13 3 -32 7 -42 4 -12 3 -15 -6 -10 -8
5 -7 -4 3 -31 19 -51 49 -174 43 -180 -3 -2 -11 19 -18 46 -7 28 -16 51 -20
51 -17 0 -52 169 -54 258 -1 51 -5 95 -8 98 -8 8 -29 -35 -22 -46 3 -5 -3 -18
-15 -30 -11 -11 -20 -23 -20 -27 0 -14 -69 -151 -80 -158 -6 -4 -3 10 8 31 11
22 27 57 37 79 10 22 33 73 51 112 19 40 36 84 40 98 9 35 16 31 14 -7z m1600
-49 c11 -38 5 -37 -14 3 -19 36 -23 75 -5 45 6 -10 15 -32 19 -48z m-60 -13
c0 -26 -6 -18 -14 19 -5 22 -4 26 4 15 5 -8 10 -24 10 -34z m174 -15 c-7 -7
-34 21 -28 31 3 5 12 1 19 -9 7 -10 12 -20 9 -22z m-61 -91 c9 -11 13 -20 7
-20 -5 0 -14 9 -20 20 -6 11 -9 20 -8 20 2 0 11 -9 21 -20z m1 -61 c6 -8 -1
-2 -16 15 -16 17 -28 37 -28 46 1 8 8 2 17 -15 8 -16 21 -37 27 -46z m90 55
c3 -8 2 -12 -4 -9 -6 3 -10 10 -10 16 0 14 7 11 14 -7z m1 -45 c12 -18 -3 -22
-20 -5 -14 14 -14 16 -1 16 8 0 18 -5 21 -11z m159 -54 c3 -8 1 -15 -4 -15 -6
0 -10 7 -10 15 0 8 2 15 4 15 2 0 6 -7 10 -15z m-1837 -17 c-3 -8 -6 -5 -6 6
-1 11 2 17 5 13 3 -3 4 -12 1 -19z m1604 -25 c13 -16 12 -17 -3 -4 -10 7 -18
15 -18 17 0 8 8 3 21 -13z m56 -122 c12 -6 33 -11 47 -11 14 0 26 -4 26 -9 0
-14 -68 5 -104 30 -19 12 -39 32 -46 43 -8 14 0 10 21 -10 19 -18 44 -37 56
-43z m38 59 c3 -6 -1 -7 -9 -4 -18 7 -21 14 -7 14 6 0 13 -4 16 -10z m-1770
-215 c-9 -26 -19 -44 -21 -42 -2 2 4 25 13 50 9 25 19 44 21 42 3 -3 -3 -25
-13 -50z m1815 -36 c0 -6 -4 -7 -10 -4 -5 3 -10 11 -10 16 0 6 5 7 10 4 6 -3
10 -11 10 -16z m-1847 -34 c-3 -9 -8 -14 -10 -11 -3 3 -2 9 2 15 9 16 15 13 8
-4z m1752 -4 c3 -5 1 -12 -5 -16 -5 -3 -10 1 -10 9 0 18 6 21 15 7z m-1700
-32 c-9 -17 -19 -29 -22 -26 -5 5 25 57 33 57 3 0 -3 -14 -11 -31z m-34 -57
c-15 -26 -81 -94 -81 -84 0 5 18 28 40 51 23 23 38 47 34 53 -4 7 -3 8 4 4 8
-5 9 -13 3 -24z m1846 -4 c-3 -8 -6 -5 -6 6 -1 11 2 17 5 13 3 -3 4 -12 1 -19z
m-1660 -50 c-3 -8 -6 -5 -6 6 -1 11 2 17 5 13 3 -3 4 -12 1 -19z m1668 12 c-4
-6 -2 -17 5 -25 7 -9 8 -15 0 -20 -5 -3 -10 -3 -10 2 0 4 -3 18 -6 31 -4 13
-2 22 5 22 7 0 9 -5 6 -10z m-58 -127 c-6 -5 -43 74 -51 107 -3 14 8 -4 25
-39 16 -35 28 -65 26 -68z m-1767 78 c-5 -11 -15 -23 -21 -27 -6 -3 -3 5 6 20
20 30 30 35 15 7z m-130 -25 c0 -2 -8 -10 -17 -17 -16 -13 -17 -12 -4 4 13 16
21 21 21 13z m80 -20 c0 -2 -8 -10 -17 -17 -16 -13 -17 -12 -4 4 13 16 21 21
21 13z m1785 -70 c14 -37 21 -65 16 -62 -10 7 -51 109 -51 128 0 20 9 3 35
-66z m-1835 29 c0 -2 -10 -9 -22 -15 -22 -11 -22 -10 -4 4 21 17 26 19 26 11z
m1884 -21 c3 -8 2 -12 -4 -9 -6 3 -10 10 -10 16 0 14 7 11 14 -7z m-1954 -18
c0 -3 -4 -8 -10 -11 -5 -3 -10 -1 -10 4 0 6 5 11 10 11 6 0 10 -2 10 -4z
m1947 -86 c-6 -25 8 -26 22 -2 6 9 11 12 11 6 0 -16 -27 -37 -39 -30 -5 4 -12
-3 -16 -14 -3 -11 -10 -20 -14 -20 -4 0 -16 -16 -27 -35 -10 -19 -22 -35 -26
-35 -10 0 13 40 50 88 18 23 31 46 27 52 -3 5 -1 10 6 10 6 0 9 -8 6 -20z
m-1548 -65 c-12 -42 -5 -68 24 -95 11 -11 15 -20 9 -20 -31 0 -62 91 -46 134
12 31 22 15 13 -19z m1715 10 c-4 -8 -1 -15 5 -15 6 0 11 -4 11 -10 0 -5 -4
-10 -9 -10 -12 0 -23 29 -15 41 9 14 14 10 8 -6z m-168 -53 c-8 -16 -23 -35
-32 -43 -16 -12 -17 -12 -11 4 4 10 2 17 -6 17 -8 0 -7 4 3 9 8 6 17 8 21 5 4
-2 10 5 14 16 3 11 11 20 16 20 5 0 3 -13 -5 -28z m-1459 -4 c-3 -8 -6 -5 -6
6 -1 11 2 17 5 13 3 -3 4 -12 1 -19z m1333 -2 c0 -2 -9 -6 -20 -9 -11 -3 -18
-1 -14 4 5 9 34 13 34 5z m48 -46 c-7 -11 -15 -15 -17 -9 -2 6 3 15 10 20 20
12 21 11 7 -11z m-1649 -169 c15 -80 8 -91 -8 -14 -7 32 -19 81 -27 109 -8 28
-14 59 -13 70 1 25 33 -83 48 -165z m1621 165 c0 -2 -8 -10 -17 -17 -16 -13
-17 -12 -4 4 13 16 21 21 21 13z m139 -73 c0 -38 6 -111 12 -164 13 -112 8
-159 -9 -79 -16 79 -26 310 -14 310 5 0 10 -30 11 -67z m-66 11 c-7 -39 -7
-39 -13 -9 -3 17 -1 35 5 41 14 17 15 13 8 -32z m-1903 -19 c0 -5 -5 -3 -10 5
-5 8 -10 20 -10 25 0 6 5 3 10 -5 5 -8 10 -19 10 -25z m2210 25 c8 -5 12 -11
10 -14 -3 -2 -14 2 -24 10 -22 15 -10 19 14 4z m-430 -10 c0 -13 -11 -13 -30
0 -12 8 -11 10 8 10 12 0 22 -4 22 -10z m330 -87 c25 -24 52 -43 60 -43 13 0
13 -1 0 -10 -13 -8 -13 -10 2 -10 11 0 16 -7 15 -20 -2 -24 -11 -24 -56 -2
-22 11 -38 28 -44 47 -5 17 -20 41 -33 56 -13 14 -24 31 -24 38 0 16 13 7 80
-56z m-1756 -20 c25 -43 35 -65 21 -48 -26 31 -80 125 -71 125 2 0 25 -35 50
-77z m-115 22 c0 -5 -4 -3 -9 5 -5 8 -9 22 -9 30 0 16 17 -16 18 -35z m1989 6
c5 -14 -53 6 -68 24 -9 11 -4 11 27 0 20 -7 39 -18 41 -24z m42 19 c0 -5 -5
-10 -11 -10 -5 0 -7 5 -4 10 3 6 8 10 11 10 2 0 4 -4 4 -10z m-2224 -30 c-3
-17 -2 -29 3 -25 5 3 7 -4 4 -16 -4 -13 -8 -17 -13 -9 -8 13 -20 -11 -19 -38
0 -14 2 -13 10 3 9 20 8 8 -7 -77 -4 -25 -3 -29 5 -18 9 13 11 12 11 -3 0 -10
4 -16 9 -13 5 4 8 -2 6 -11 -2 -10 -4 -25 -5 -33 -1 -8 -6 -4 -10 10 -7 21 -8
22 -9 5 -1 -17 -3 -17 -11 -5 -7 11 -12 12 -21 3 -8 -8 -13 -66 -14 -178 -3
-181 -14 -238 -16 -79 -4 260 0 356 15 374 7 8 24 43 37 78 26 68 35 79 25 32z
m278 -40 c25 -38 43 -70 39 -70 -14 0 -73 61 -88 91 -13 25 -13 49 -1 49 2 0
24 -31 50 -70z m1583 -52 c-3 -7 -5 -2 -5 12 0 14 2 19 5 13 2 -7 2 -19 0 -25z
m346 -4 c-4 -11 -9 -12 -19 -3 -20 16 -17 28 5 22 12 -3 17 -11 14 -19z
m-2190 -31 c-3 -18 -9 -33 -14 -33 -11 0 -11 0 2 39 14 39 18 37 12 -6z m2023
13 c26 -19 27 -120 2 -156 l-18 -24 0 47 c0 28 -8 64 -20 87 -11 22 -20 44
-20 50 0 15 33 12 56 -4z m75 -26 c24 -13 25 -52 2 -91 -9 -15 -15 -31 -12
-34 9 -8 59 19 59 33 0 15 22 15 73 0 l40 -12 -7 -134 c-4 -73 -13 -168 -21
-210 -7 -42 -16 -115 -20 -162 -30 -415 -73 -573 -211 -785 -137 -211 -296
-330 -609 -454 -251 -100 -481 -52 -873 182 -88 52 -111 72 -148 125 -25 34
-48 62 -53 62 -4 0 -22 31 -40 70 -18 38 -38 68 -44 67 -7 -1 -12 9 -13 23 -1
46 -4 51 -53 103 -67 72 -97 123 -105 182 -4 28 -14 75 -21 105 -21 83 -27
180 -13 197 9 11 7 15 -10 20 -26 6 -32 63 -7 63 8 0 15 -3 15 -8 0 -11 40
-33 50 -27 4 3 -5 18 -21 34 -16 16 -29 37 -29 45 0 17 -10 21 -26 9 -5 -5 -4
-1 3 6 11 13 15 13 30 -2 61 -60 100 -80 151 -78 l32 0 -20 -38 c-19 -37 -19
-39 -1 -34 11 3 21 17 24 33 7 31 31 45 55 30 10 -5 13 -10 9 -10 -5 0 -5 -6
0 -12 4 -7 7 -22 8 -33 0 -13 6 -19 15 -16 8 2 28 3 43 3 38 -1 119 49 187
115 l55 53 3 -30 c2 -16 8 -30 13 -30 6 0 9 8 8 18 -4 21 20 92 30 92 4 0 13
-6 20 -12 11 -11 13 -9 7 10 -16 58 -16 64 3 27 11 -22 17 -50 15 -62 -3 -12
-1 -30 5 -40 11 -17 11 -17 10 2 -1 11 1 28 5 37 4 9 3 25 -3 37 -16 29 -13
39 4 17 8 -11 15 -26 15 -34 0 -28 54 -152 61 -140 4 6 1 21 -7 33 -12 18 -3
15 64 -17 42 -20 108 -47 145 -59 63 -20 77 -21 181 -12 128 10 187 33 332
128 47 30 89 55 94 55 6 0 10 6 10 14 0 7 6 19 14 25 7 6 19 45 25 85 7 41 19
80 27 87 16 13 19 59 4 59 -5 0 -10 7 -10 15 0 8 5 15 11 15 5 0 7 -5 4 -10
-3 -6 1 -13 9 -16 20 -8 20 -16 -3 -67 -37 -81 -46 -235 -9 -161 8 17 21 28
32 27 11 -1 15 4 12 14 -3 8 -1 24 5 35 9 16 17 19 41 14 l31 -6 -7 48 c-5 41
-3 51 14 67 17 15 23 16 29 6 7 -10 17 -9 48 8 51 25 103 69 103 85 0 7 9 21
20 31 31 28 61 104 62 153 0 46 0 47 29 32z m-1701 -19 c-11 -21 -30 -37 -30
-25 0 8 30 44 37 44 2 0 -1 -9 -7 -19z m-453 -118 c-3 -10 -5 -4 -5 12 0 17 2
24 5 18 2 -7 2 -21 0 -30z m713 33 c0 -2 -7 -7 -16 -10 -8 -3 -12 -2 -9 4 6
10 25 14 25 6z m-53 -22 c-3 -3 -12 -4 -19 -1 -8 3 -5 6 6 6 11 1 17 -2 13 -5z
m-486 -64 c6 0 7 4 4 10 -3 5 0 7 8 4 9 -3 12 -14 9 -31 -3 -18 -1 -24 7 -19
6 4 11 13 10 19 -3 28 4 40 10 17 5 -14 4 -33 -1 -43 -6 -12 -5 -30 1 -49 15
-41 14 -46 -3 -23 -13 19 -15 17 -21 -18 -10 -50 -21 -55 -17 -7 2 21 -1 41
-7 44 -6 4 -11 15 -11 25 0 9 -9 35 -19 57 -21 43 -17 67 6 35 8 -12 19 -21
24 -21z m1846 18 c-3 -8 -6 -5 -6 6 -1 11 2 17 5 13 3 -3 4 -12 1 -19z m-2007
-73 c7 4 7 -10 0 -75 -1 -8 -7 10 -14 40 -7 30 -10 60 -6 65 3 6 6 0 8 -13 2
-12 7 -20 12 -17z m61 -113 c-6 -2 -8 -9 -4 -15 3 -7 2 -9 -2 -4 -5 4 -9 16
-10 27 -1 16 1 17 13 8 9 -8 10 -14 3 -16z m40 -9 c13 -16 12 -17 -3 -4 -10 7
-18 15 -18 17 0 8 8 3 21 -13z m79 -23 c0 -5 -4 -10 -10 -10 -5 0 -10 5 -10
10 0 6 5 10 10 10 6 0 10 -4 10 -10z m-32 -80 c7 0 12 -5 12 -10 0 -7 -6 -7
-19 0 -27 14 -27 14 -27 -29 1 -29 7 -44 26 -59 l25 -21 -24 6 c-18 5 -22 3
-16 -6 4 -7 -4 -5 -19 4 -25 17 -30 26 -27 53 1 6 -3 12 -9 12 -5 0 -10 -5
-10 -11 0 -5 -4 -7 -10 -4 -5 3 -10 11 -10 16 0 6 4 8 9 4 16 -9 24 15 11 30
-7 8 -8 15 -3 15 5 0 16 -11 23 -25 7 -14 17 -25 22 -25 12 0 -1 71 -17 90
-31 39 -24 40 12 3 22 -24 45 -43 51 -43z m-3 50 c4 -6 11 -8 16 -5 5 4 9 -1
9 -9 0 -9 -3 -16 -7 -16 -10 1 -63 47 -63 55 0 8 37 -13 45 -25z m1599 -39
c-15 -22 -29 -39 -31 -37 -3 2 8 23 23 45 15 23 29 40 31 38 2 -3 -9 -23 -23
-46z m-1696 4 c-3 -3 -9 2 -12 12 -6 14 -5 15 5 6 7 -7 10 -15 7 -18z m-27
-92 c13 -16 12 -17 -3 -4 -10 7 -18 15 -18 17 0 8 8 3 21 -13z m279 -49 c0 -8
-4 -12 -10 -9 -5 3 -10 10 -10 16 0 5 5 9 10 9 6 0 10 -7 10 -16z"/>
<path d="M12875 4410 c-3 -5 -1 -10 4 -10 6 0 11 5 11 10 0 6 -2 10 -4 10 -3
0 -8 -4 -11 -10z"/>
<path d="M12358 4003 c0 -5 -2 -12 -3 -18 -2 -5 -4 -17 -5 -25 -1 -12 -3 -12
-8 2 -6 14 -10 14 -37 -8 -16 -13 -25 -24 -18 -24 6 0 19 7 27 16 15 14 16 14
16 -3 0 -16 1 -16 19 2 23 24 37 65 22 65 -6 0 -12 -3 -13 -7z"/>
<path d="M12375 3940 c-3 -5 -1 -10 4 -10 6 0 11 5 11 10 0 6 -2 10 -4 10 -3
0 -8 -4 -11 -10z"/>
<path d="M12360 3911 c0 -5 -3 -18 -6 -28 -5 -16 -4 -16 10 1 18 23 20 36 6
36 -5 0 -10 -4 -10 -9z"/>
<path d="M11420 3878 c0 -7 11 -13 24 -13 15 0 22 5 19 13 -3 6 -14 12 -24 12
-10 0 -19 -6 -19 -12z"/>
<path d="M11505 3810 c3 -5 8 -10 11 -10 2 0 4 5 4 10 0 6 -5 10 -11 10 -5 0
-7 -4 -4 -10z"/>
<path d="M11354 3745 c-8 -21 6 -41 17 -24 12 19 11 39 -1 39 -6 0 -13 -7 -16
-15z"/>
<path d="M11525 3750 c4 -6 11 -8 16 -5 14 9 11 15 -7 15 -8 0 -12 -5 -9 -10z"/>
<path d="M11310 3709 c0 -11 5 -17 10 -14 6 3 10 13 10 21 0 8 -4 14 -10 14
-5 0 -10 -9 -10 -21z"/>
<path d="M11180 3539 c0 -5 5 -7 10 -4 6 3 10 8 10 11 0 2 -4 4 -10 4 -5 0
-10 -5 -10 -11z"/>
<path d="M7734 7288 l-29 -33 33 29 c30 28 37 36 29 36 -2 0 -16 -15 -33 -32z"/>
<path d="M10478 5815 c1 -764 4 -1406 5 -1425 2 -19 4 584 4 1340 1 756 -2
1398 -5 1425 -4 28 -6 -575 -4 -1340z"/>
<path d="M11974 7150 c-43 -17 -66 -77 -48 -125 4 -8 20 -23 36 -31 84 -43
168 60 106 130 -26 29 -63 39 -94 26z"/>
<path d="M7948 7140 c-79 -23 -152 -126 -164 -226 -19 -153 103 -292 234 -268
55 10 85 28 131 80 163 186 20 481 -201 414z m106 -206 c10 -25 -2 -30 -20 -8
-15 18 -15 18 -9 -3 3 -12 1 -24 -4 -27 -12 -8 -30 24 -24 42 7 18 50 15 57
-4z"/>
<path d="M8260 7059 c0 -4 7 -22 15 -40 8 -19 14 -27 14 -19 0 14 -28 72 -29
59z"/>
<path d="M8291 6964 c0 -11 3 -14 6 -6 3 7 2 16 -1 19 -3 4 -6 -2 -5 -13z"/>
<path d="M13602 6900 c0 -14 2 -19 5 -12 2 6 2 18 0 25 -3 6 -5 1 -5 -13z"/>
<path d="M8291 6854 c-3 -43 -34 -113 -68 -153 -42 -50 -98 -80 -161 -88 -60
-7 -67 -13 -14 -13 59 0 142 40 180 86 37 45 75 137 69 168 l-4 21 -2 -21z"/>
<path d="M6183 6730 c-177 -10 -328 -21 -335 -24 -14 -7 110 -2 447 15 121 6
224 15 230 20 5 6 3 8 -5 8 -8 -1 -160 -10 -337 -19z"/>
<path d="M11708 6743 c7 -3 16 -2 19 1 4 3 -2 6 -13 5 -11 0 -14 -3 -6 -6z"/>
<path d="M6795 6728 c-130 -71 -165 -265 -66 -368 171 -180 415 114 264 318
-13 17 -37 39 -53 47 -34 17 -116 19 -145 3z m105 -173 c15 -18 -1 -20 -19 -2
-11 10 -12 8 -6 -10 3 -13 2 -23 -3 -23 -10 0 -22 23 -22 41 0 15 36 10 50 -6z"/>
<path d="M6505 6714 c-5 -1 -163 -10 -350 -19 -187 -9 -356 -20 -375 -25 -19
-5 -58 -24 -85 -42 -28 -17 -53 -31 -56 -30 -4 0 -15 -9 -25 -21 -19 -21 -19
-21 0 -7 11 8 17 11 15 5 -3 -5 -18 -37 -34 -70 l-30 -60 -5 -760 -6 -760 1
769 0 768 -140 -7 c-77 -4 -223 -10 -325 -14 -169 -6 -190 -9 -235 -31 -28
-14 -50 -32 -50 -40 0 -8 -7 -15 -15 -15 -19 0 -57 -57 -73 -109 -9 -32 -12
-500 -12 -2181 0 -2075 1 -2141 19 -2189 23 -60 76 -121 130 -148 36 -19 73
-22 326 -34 157 -7 306 -13 333 -14 36 0 47 -4 47 -16 0 -10 -6 -14 -17 -10
-10 2 -128 7 -263 10 -135 4 -272 9 -305 12 -52 6 -58 5 -47 -8 10 -12 52 -17
205 -22 425 -14 444 -16 455 -42 20 -42 85 -105 136 -132 l51 -26 -40 -6 -40
-6 35 -7 c19 -3 166 -13 325 -22 160 -8 334 -18 389 -22 94 -6 98 -5 88 13 -5
10 -12 37 -16 59 -3 22 -8 1151 -11 2509 -3 1358 -7 2472 -10 2474 -3 3 -5
-67 -5 -156 l0 -162 -40 0 c-37 0 -39 -2 -46 -35 -3 -19 -11 -38 -16 -41 -5
-3 -14 -17 -19 -31 -11 -30 -21 -24 -25 13 -5 43 -31 74 -63 74 -16 0 -34 -6
-41 -14 -6 -8 -19 -12 -27 -9 -9 4 -14 2 -11 -3 4 -5 3 -28 -1 -51 -5 -26 -4
-46 2 -52 8 -8 4 -11 -11 -11 -15 0 -24 8 -28 25 -5 21 -12 25 -44 25 -21 0
-40 4 -42 10 -1 5 -16 9 -33 9 -16 -1 -64 -1 -105 0 -41 1 -70 -2 -65 -6 6 -5
11 -15 13 -24 2 -12 -4 -15 -23 -11 -17 3 -25 0 -25 -9 0 -9 12 -14 33 -15 55
-1 129 -45 156 -93 32 -58 34 -166 4 -231 -79 -172 -289 -148 -343 40 -5 17
-5 28 -1 25 5 -2 11 -17 14 -32 3 -16 16 -44 29 -62 99 -147 308 -58 308 130
0 69 -12 104 -48 142 -62 66 -142 76 -210 27 -46 -33 -69 -71 -89 -145 -12
-47 -13 -48 -9 -10 2 22 7 49 12 59 5 14 4 17 -4 12 -7 -4 -15 -25 -18 -47 -5
-29 -11 -39 -25 -39 -14 0 -19 -8 -20 -27 l-1 -28 -8 30 -8 30 -2 -30 -2 -30
-9 35 c-16 58 -24 656 -10 722 18 85 75 158 148 191 53 24 75 27 273 36 455
23 471 23 485 11 10 -9 15 -6 20 10 7 24 5 29 -10 24z m-1545 -343 c0 -13 -89
-18 -94 -6 -2 6 18 11 45 12 27 2 49 -1 49 -6z m568 -483 l-3 -483 -2 443 -3
442 -109 0 c-104 0 -109 1 -115 23 -3 12 -6 25 -6 30 0 4 29 7 65 7 51 0 65
-3 65 -15 0 -8 5 -15 10 -15 6 0 10 7 10 15 0 11 12 15 43 17 40 1 40 2 -13 8
l-55 7 58 1 57 2 -2 -482z m-459 386 c146 -58 145 -304 -1 -380 -60 -31 -162
-9 -206 45 -69 85 -67 197 6 282 58 68 123 85 201 53z m92 -21 c13 -17 13 -17
-6 -3 -11 8 -22 16 -24 17 -2 2 0 3 6 3 6 0 17 -8 24 -17z m-313 -33 c-7 -11
-17 -20 -22 -20 -5 0 -1 9 9 20 10 11 20 20 22 20 2 0 -2 -9 -9 -20z m-91 -42
c-3 -7 -5 -2 -5 12 0 14 2 19 5 13 2 -7 2 -19 0 -25z m467 -23 c3 -8 1 -15 -4
-15 -6 0 -10 7 -10 15 0 8 2 15 4 15 2 0 6 -7 10 -15z m1091 -85 c40 -44 10
-120 -46 -120 -56 0 -78 72 -34 115 29 30 56 32 80 5z m-330 -105 l30 -14 -30
6 c-16 3 -39 10 -50 14 l-20 8 20 0 c11 0 34 -6 50 -14z m70 -17 c-11 -7 -21
-6 -28 2 -9 8 -8 10 6 5 10 -4 17 -2 17 5 0 6 5 8 11 4 8 -5 6 -10 -6 -16z
m30 -36 c-3 -3 -11 0 -18 7 -9 10 -8 11 6 5 10 -3 15 -9 12 -12z m-678 -19
c12 -5 14 -3 8 7 -5 9 -4 11 4 6 6 -4 9 -10 7 -14 -2 -4 -1 -26 4 -49 4 -23 4
-40 0 -38 -9 6 -42 -30 -35 -37 3 -3 -6 -3 -20 0 -29 5 -65 46 -65 74 0 24 49
71 67 63 7 -3 20 -8 30 -12z m-354 -109 c181 -62 159 -359 -30 -399 -80 -16
-172 49 -199 141 -31 106 19 216 116 258 45 19 56 19 113 0z m381 -2 c3 -5 -1
-9 -9 -9 -8 0 -12 4 -9 9 3 4 7 8 9 8 2 0 6 -4 9 -8z m441 -32 c3 -5 1 -10 -4
-10 -6 0 -11 5 -11 10 0 6 2 10 4 10 3 0 8 -4 11 -10z m-488 -6 c-3 -3 -12 -4
-19 -1 -8 3 -5 6 6 6 11 1 17 -2 13 -5z m524 -47 c-11 -11 -41 -3 -41 11 0 5
12 7 26 4 17 -3 22 -8 15 -15z m-688 -37 c3 -11 2 -18 -3 -15 -4 3 -10 14 -13
25 -3 11 -2 18 3 15 4 -3 10 -14 13 -25z m704 -255 c60 -18 109 -67 119 -120
13 -72 0 -167 -29 -218 -16 -26 -33 -45 -38 -41 -7 4 -3 14 9 28 42 45 54 85
50 161 -3 60 -8 78 -32 109 -41 55 -82 76 -144 76 -50 0 -56 -3 -101 -48 -31
-31 -52 -63 -59 -88 -5 -21 -10 -30 -11 -19 -2 46 63 138 114 161 39 17 61 17
122 -1z m-826 -132 c56 -29 84 -64 91 -118 3 -16 3 -24 1 -17 -10 29 -23 9
-17 -27 14 -86 -57 -199 -136 -216 -70 -15 -144 15 -188 79 -24 35 -27 48 -27
121 0 74 3 86 28 123 57 82 152 103 248 55z m819 -103 c0 -5 -2 -10 -4 -10 -3
0 -8 5 -11 10 -3 6 -1 10 4 10 6 0 11 -4 11 -10z m-211 -65 c0 -5 -4 -3 -9 5
-5 8 -9 22 -9 30 0 16 17 -16 18 -35z m46 -65 l30 -35 -28 25 c-16 14 -33 34
-39 45 -11 21 -10 20 37 -35z m210 -30 c-3 -5 -12 -10 -18 -10 -7 0 -6 4 3 10
19 12 23 12 15 0z"/>
<path d="M4934 6246 c-72 -32 -117 -138 -95 -219 16 -54 70 -113 113 -122 69
-16 145 21 179 87 43 82 22 193 -44 240 -37 26 -111 33 -153 14z m88 -34 c-18
-2 -36 -10 -39 -18 -3 -8 -11 -14 -18 -14 -8 0 -17 -4 -20 -10 -4 -6 1 -7 12
-3 15 5 16 3 6 -8 -7 -7 -13 -20 -13 -29 0 -9 -13 -29 -30 -45 -16 -16 -30
-38 -30 -49 0 -17 -2 -18 -10 -6 -24 37 -3 127 38 164 25 22 77 34 112 27 23
-5 22 -6 -8 -9z m-22 -117 c7 -9 8 -15 2 -15 -5 0 -12 7 -16 15 -3 8 -4 15 -2
15 2 0 9 -7 16 -15z"/>
<path d="M4932 5753 c-73 -36 -116 -136 -93 -215 26 -86 76 -128 151 -128 134
0 214 167 136 282 -48 72 -124 96 -194 61z"/>
<path d="M4934 5261 c-61 -28 -104 -101 -104 -175 1 -71 65 -157 129 -171 78
-17 167 43 191 129 40 145 -90 276 -216 217z"/>
<path d="M11986 6595 c10 -8 24 -15 31 -15 6 0 24 -12 40 -28 33 -33 85 -67
96 -64 4 1 7 -2 7 -7 0 -5 14 -14 30 -20 17 -6 44 -16 61 -23 18 -6 45 -22 60
-36 16 -13 29 -19 29 -14 0 16 -111 113 -121 106 -5 -3 -25 8 -45 25 -51 45
-56 37 -7 -9 49 -46 43 -55 -7 -10 -18 16 -42 32 -52 36 -10 3 -18 9 -18 14 0
8 -100 60 -115 60 -5 0 0 -7 11 -15z"/>
<path d="M11730 6586 c0 -24 25 -36 85 -42 39 -3 55 -2 50 6 -3 6 -10 8 -15 5
-5 -3 -11 -1 -15 5 -3 5 -16 8 -29 4 -15 -3 -28 2 -40 15 -22 24 -36 27 -36 7z"/>
<path d="M11605 6570 c10 -11 20 -20 23 -20 3 0 -3 9 -13 20 -10 11 -20 20
-23 20 -3 0 3 -9 13 -20z"/>
<path d="M11650 6570 c6 -11 13 -20 16 -20 2 0 0 9 -6 20 -6 11 -13 20 -16 20
-2 0 0 -9 6 -20z"/>
<path d="M11444 6568 c-3 -5 -9 -6 -14 -3 -4 3 -13 -9 -19 -25 -6 -18 -6 -30
0 -30 5 0 9 6 9 13 0 9 3 8 9 -2 5 -7 14 -11 20 -7 6 4 9 1 5 -7 -3 -8 2 -21
10 -30 8 -8 13 -16 11 -18 -2 -2 34 -5 79 -5 82 -2 133 -18 167 -55 16 -17 25
-79 11 -79 -6 0 -9 -22 -9 -50 2 -50 17 -73 17 -25 0 14 5 25 10 25 6 0 10 -8
10 -17 0 -10 4 -24 9 -31 4 -7 7 12 5 45 -1 32 -1 47 2 33 10 -52 36 -110 50
-110 19 0 18 32 -3 78 -17 37 -20 46 -22 69 0 7 -13 24 -28 39 -16 15 -19 21
-9 13 17 -12 19 -12 14 1 -16 44 -18 60 -10 60 6 0 12 -7 16 -15 3 -8 11 -15
18 -15 7 0 22 -13 33 -29 10 -16 22 -28 26 -25 8 5 25 -35 21 -49 -1 -5 2 -6
7 -3 10 6 41 -47 41 -69 0 -7 7 -15 15 -19 20 -7 20 -6 -17 64 -18 34 -69 99
-116 148 -72 75 -84 85 -93 70 -14 -25 -26 -22 -37 10 -6 15 -11 20 -11 11 -1
-16 -34 -19 -48 -4 -5 4 -2 5 5 1 29 -17 9 4 -24 25 -37 22 -149 34 -160 17z
m300 -74 c3 -8 2 -12 -4 -9 -6 3 -10 10 -10 16 0 14 7 11 14 -7z m-149 -3 c14
-6 6 -8 -26 -7 -26 0 -45 4 -42 9 5 9 42 8 68 -2z m170 -131 c3 -5 1 -10 -4
-10 -6 0 -11 5 -11 10 0 6 2 10 4 10 3 0 8 -4 11 -10z"/>
<path d="M11950 6556 c0 -6 66 -46 76 -46 5 0 -8 11 -28 25 -36 24 -48 30 -48
21z"/>
<path d="M11690 6541 c0 -6 5 -13 10 -16 6 -3 10 1 10 9 0 9 -4 16 -10 16 -5
0 -10 -4 -10 -9z"/>
<path d="M11790 6516 c0 -2 7 -6 15 -10 8 -3 15 -1 15 4 0 6 -7 10 -15 10 -8
0 -15 -2 -15 -4z"/>
<path d="M12050 6516 c0 -2 7 -7 16 -10 8 -3 12 -2 9 4 -6 10 -25 14 -25 6z"/>
<path d="M5930 6501 c0 -5 13 -14 29 -19 70 -25 114 -140 92 -244 -24 -115
-111 -187 -209 -172 -38 5 -56 16 -94 54 -27 26 -48 43 -48 39 0 -17 87 -99
106 -99 16 0 17 -2 4 -11 -12 -8 -10 -9 8 -4 12 3 22 3 22 -2 0 -16 143 -1
182 18 76 39 128 124 128 210 0 40 -47 156 -72 177 -13 10 -133 62 -145 62 -2
0 -3 -4 -3 -9z m184 -147 c3 -8 2 -12 -4 -9 -6 3 -10 10 -10 16 0 14 7 11 14
-7z"/>
<path d="M11950 6490 c0 -5 12 -10 28 -10 21 0 24 2 12 10 -20 13 -40 13 -40
0z"/>
<path d="M11816 6482 c-3 -5 1 -15 9 -22 16 -14 20 -3 6 19 -5 8 -11 9 -15 3z"/>
<path d="M5788 6455 c-21 -14 -50 -46 -65 -72 -23 -40 -27 -59 -28 -126 -1
-44 1 -75 3 -68 2 6 17 -9 33 -34 96 -151 308 -59 309 134 0 111 -70 191 -166
191 -36 0 -59 -7 -86 -25z m152 -30 c16 -8 34 -24 40 -34 13 -25 13 -41 -1
-18 -12 20 -45 23 -56 4 -10 -17 -89 -57 -97 -50 -3 4 -6 1 -6 -5 0 -16 -60
-15 -61 1 -1 6 -5 1 -9 -13 -8 -25 -8 -25 -9 -2 -2 46 55 122 80 106 7 -4 10
-3 5 4 -15 24 71 29 114 7z m67 -137 c-3 -7 -5 -2 -5 12 0 14 2 19 5 13 2 -7
2 -19 0 -25z m-131 8 c20 -21 17 -28 -6 -16 -11 6 -20 15 -20 20 0 14 9 12 26
-4z m64 -34 c0 -10 -5 -23 -10 -28 -13 -13 -70 -6 -70 8 0 6 12 8 26 5 20 -3
28 0 31 14 7 24 23 25 23 1z"/>
<path d="M7945 6448 c-113 -39 -183 -180 -156 -311 21 -100 112 -187 194 -187
124 0 237 126 237 265 0 160 -141 280 -275 233z m75 -218 c0 -5 -4 -10 -10
-10 -5 0 -10 5 -10 10 0 6 5 10 10 10 6 0 10 -4 10 -10z m25 -80 c3 -5 -1 -10
-9 -10 -9 0 -16 5 -16 10 0 6 4 10 9 10 6 0 13 -4 16 -10z"/>
<path d="M7085 6410 c-10 -31 -74 -100 -105 -112 -14 -6 -41 -14 -60 -18 l-35
-8 33 -1 c63 -2 131 49 172 127 6 13 9 26 7 29 -3 2 -8 -5 -12 -17z"/>
<path d="M8251 6376 c12 -22 28 -62 35 -90 9 -39 12 -44 13 -21 1 32 -26 98
-54 130 -9 11 -7 2 6 -19z"/>
<path d="M11716 6345 c4 -8 8 -15 10 -15 2 0 4 7 4 15 0 8 -4 15 -10 15 -5 0
-7 -7 -4 -15z"/>
<path d="M12145 6190 c10 -11 20 -18 23 -15 7 6 -18 35 -31 35 -5 0 -2 -9 8
-20z"/>
<path d="M8292 6159 c-4 -84 -103 -211 -176 -224 -20 -4 -36 -11 -36 -16 0
-17 103 30 136 62 43 41 86 139 81 182 l-4 32 -1 -36z"/>
<path d="M11717 6183 c-4 -3 -7 -13 -7 -22 1 -13 3 -13 11 2 11 19 8 33 -4 20z"/>
<path d="M11872 6170 c0 -14 2 -19 5 -12 2 6 2 18 0 25 -3 6 -5 1 -5 -13z"/>
<path d="M11840 6170 c0 -5 5 -10 11 -10 5 0 7 5 4 10 -3 6 -8 10 -11 10 -2 0
-4 -4 -4 -10z"/>
<path d="M6778 6118 c-74 -46 -117 -142 -104 -234 28 -206 256 -246 342 -59
46 98 19 232 -59 287 -46 33 -131 36 -179 6z m127 -244 c-18 -13 -35 -11 -35
5 0 5 12 9 27 9 25 0 25 -1 8 -14z"/>
<path d="M11706 6124 c-4 -9 -4 -19 -1 -22 2 -3 7 3 11 12 4 9 4 19 1 22 -2 3
-7 -3 -11 -12z"/>
<path d="M11860 6115 c0 -8 5 -15 10 -15 6 0 10 7 10 15 0 8 -4 15 -10 15 -5
0 -10 -7 -10 -15z"/>
<path d="M7073 6061 c12 -22 23 -38 25 -36 5 5 -26 63 -37 69 -5 4 0 -12 12
-33z"/>
<path d="M11880 6065 c1 -26 2 -28 11 -12 8 14 8 22 0 30 -8 8 -11 3 -11 -18z"/>
<path d="M11987 6033 c-4 -3 -7 -21 -7 -40 0 -18 -4 -33 -10 -33 -5 0 -10 6
-10 13 0 9 -2 9 -9 -1 -4 -7 -19 -14 -32 -15 -26 -1 -42 -13 -52 -37 -4 -12
-6 -12 -6 -1 -1 11 -4 11 -18 0 -9 -8 -19 -13 -22 -11 -3 1 -6 -4 -6 -10 0 -7
-5 -17 -11 -23 -6 -5 -14 -18 -17 -27 -5 -15 -3 -16 19 -6 13 6 26 9 29 6 8
-7 -16 -58 -27 -58 -4 0 -8 -7 -8 -15 0 -9 -6 -12 -17 -9 -12 4 -14 3 -6 -3 8
-6 9 -14 3 -23 -6 -8 -10 -21 -10 -29 0 -8 15 10 33 40 48 80 70 108 85 109 6
0 12 10 12 23 0 12 7 31 15 41 8 11 15 15 15 10 0 -6 -5 -15 -12 -22 -6 -6 -8
-15 -4 -19 4 -4 11 -1 16 7 18 29 10 0 -14 -51 -15 -30 -19 -46 -10 -39 21 18
17 -3 -5 -26 -23 -25 -40 -91 -21 -79 8 5 11 4 6 -3 -4 -6 -13 -9 -21 -5 -10
3 -15 -2 -15 -16 0 -18 6 -21 46 -21 41 0 45 2 39 20 -8 26 10 26 28 -1 9 -11
16 -16 19 -9 4 14 77 31 100 24 23 -7 141 27 131 37 -10 10 -123 28 -192 31
-28 2 -51 6 -51 9 0 4 20 12 45 19 41 12 100 10 150 -5 11 -3 4 2 -15 11 -27
12 -55 15 -127 11 -93 -5 -93 -5 -93 18 0 13 7 28 14 32 8 5 17 25 19 46 5 51
17 59 17 12 0 -36 1 -37 18 -22 17 15 99 42 116 38 28 -7 98 -6 102 1 3 4 -10
11 -28 15 -35 8 -35 8 -59 -2 -13 -5 -16 -1 -14 19 3 27 -3 28 -77 10 -20 -5
-29 -1 -37 14 -6 11 -8 28 -5 36 6 17 2 21 -9 9z m-27 -280 c0 -5 -4 -14 -9
-21 -7 -11 -9 -11 -14 1 -3 8 -3 18 0 21 9 8 23 7 23 -1z"/>
<path d="M11911 6014 c0 -11 3 -14 6 -6 3 7 2 16 -1 19 -3 4 -6 -2 -5 -13z"/>
<path d="M11892 5990 c0 -14 2 -19 5 -12 2 6 2 18 0 25 -3 6 -5 1 -5 -13z"/>
<path d="M11915 5980 c3 -5 8 -10 11 -10 2 0 4 5 4 10 0 6 -5 10 -11 10 -5 0
-7 -4 -4 -10z"/>
<path d="M7111 5924 c0 -11 3 -14 6 -6 3 7 2 16 -1 19 -3 4 -6 -2 -5 -13z"/>
<path d="M8033 5913 c9 -2 23 -2 30 0 6 3 -1 5 -18 5 -16 0 -22 -2 -12 -5z"/>
<path d="M12230 5901 c0 -5 5 -13 10 -16 6 -3 10 -2 10 4 0 5 -4 13 -10 16 -5
3 -10 2 -10 -4z"/>
<path d="M5713 5874 c-7 -7 -13 -19 -13 -26 0 -7 7 -2 16 10 18 26 16 37 -3
16z"/>
<path d="M11664 5868 c-38 -45 -55 -88 -34 -88 6 0 10 9 10 20 0 11 6 23 14
26 8 3 12 12 9 20 -3 8 -1 14 5 14 5 0 12 7 16 15 8 21 3 19 -20 -7z"/>
<path d="M7080 5800 c-18 -44 -82 -97 -132 -110 -61 -16 -66 -18 -37 -19 34
-1 98 25 127 52 25 23 67 96 59 103 -2 3 -10 -9 -17 -26z"/>
<path d="M11790 5810 c-9 -6 -10 -10 -3 -10 6 0 15 5 18 10 8 12 4 12 -15 0z"/>
<path d="M11834 5775 c-19 -29 -44 -98 -38 -104 7 -8 17 8 19 31 2 13 13 40
25 61 24 41 20 51 -6 12z"/>
<path d="M11650 5771 c0 -12 -9 -41 -21 -64 -22 -43 -42 -168 -28 -177 13 -9
-10 -183 -31 -225 -11 -23 -20 -47 -20 -53 0 -7 -7 -15 -15 -18 -8 -4 -15 -12
-15 -20 0 -8 -4 -14 -10 -14 -12 0 -13 23 -3 34 4 4 8 19 9 34 6 92 13 152 17
159 3 5 2 24 -3 43 l-8 35 -1 -31 c-2 -61 -14 -123 -22 -118 -5 3 -9 -7 -9
-23 0 -15 -10 -43 -21 -62 -44 -73 -118 -227 -119 -251 -4 -46 0 -60 15 -60 8
0 21 -12 29 -27 14 -26 15 -26 16 -6 0 20 3 19 40 -14 22 -20 48 -41 58 -47
10 -6 40 -26 67 -43 50 -34 84 -45 49 -17 -10 9 2 4 29 -9 26 -14 47 -22 47
-17 0 5 15 10 33 10 72 1 122 13 180 42 21 10 42 16 47 13 12 -8 52 19 43 28
-3 4 1 7 10 7 20 0 82 85 122 168 28 57 64 89 73 63 2 -6 8 -11 13 -11 14 0
11 58 -5 88 -25 47 -180 187 -244 221 -45 24 -32 4 27 -43 108 -84 176 -162
165 -190 -4 -11 -19 -16 -51 -16 -24 0 -53 -5 -64 -11 -20 -10 -125 -36 -186
-46 -18 -3 -33 -10 -33 -15 0 -6 -7 -7 -16 -4 -9 3 -25 -1 -37 -9 -12 -8 -35
-15 -51 -15 -16 0 -59 -7 -94 -16 -52 -13 -69 -14 -87 -4 -19 10 -29 9 -57 -5
-66 -35 -67 -35 -72 -17 -7 21 -2 95 8 110 3 6 32 24 63 41 42 23 59 28 69 20
10 -8 15 -7 20 4 3 9 25 18 51 22 25 4 55 10 67 15 20 8 20 8 -7 19 -44 17
-73 13 -106 -15 -17 -14 -31 -21 -31 -16 0 5 7 15 16 23 8 7 22 25 30 40 15
29 37 210 33 264 -2 17 0 36 5 43 4 7 2 12 -4 12 -7 0 -10 16 -8 43 2 24 8 41
14 40 12 -2 30 95 19 105 -3 3 -5 -5 -5 -17z m-176 -556 c-4 -8 -1 -15 6 -15
6 0 8 -5 4 -11 -4 -8 -9 -7 -15 2 -7 11 -9 11 -9 -2 0 -9 -7 -19 -15 -23 -13
-5 -14 -2 -4 17 21 40 45 63 33 32z m579 -112 c-5 -12 -2 -15 10 -10 28 11 23
-49 -5 -64 -13 -7 -26 -17 -30 -22 -4 -6 -23 -11 -42 -11 -20 0 -36 -4 -36 -8
0 -4 -9 -8 -20 -8 -12 0 -32 -7 -45 -16 -14 -9 -37 -17 -53 -19 -15 -1 -34 -4
-42 -7 -31 -11 -152 -26 -182 -23 -34 5 -78 30 -78 46 0 6 5 7 12 3 8 -5 9 0
5 15 -4 18 -3 20 9 10 11 -9 14 -8 14 5 0 9 12 18 28 22 15 4 52 13 82 20 30
8 66 14 80 14 14 0 50 10 80 21 46 18 162 45 207 48 8 1 10 -6 6 -16z"/>
<path d="M7924 5746 c-140 -65 -187 -271 -91 -399 85 -111 228 -114 320 -6 91
105 87 269 -8 364 -67 68 -136 81 -221 41z m146 -271 c-7 -8 -19 -15 -27 -15
-11 0 -9 7 8 25 25 25 41 16 19 -10z"/>
<path d="M8234 5705 c102 -154 70 -358 -69 -441 -44 -26 -41 -33 4 -10 95 49
153 195 130 324 -10 56 -48 134 -72 149 -6 4 -3 -6 7 -22z"/>
<path d="M11438 5718 c-3 -7 6 -21 19 -33 33 -28 22 -59 -18 -50 -42 9 -177
-13 -225 -37 -90 -45 -126 -119 -61 -126 16 -2 36 0 45 4 10 4 37 13 62 19 33
8 45 15 44 28 -1 11 5 17 18 17 10 0 16 -4 13 -10 -12 -19 32 -10 50 10 11 12
37 22 66 26 48 6 62 17 37 27 -7 3 -4 6 8 6 16 1 20 7 19 29 -3 48 -67 122
-77 90z m-62 -117 c-3 -4 -28 -11 -55 -14 -27 -3 -69 -16 -93 -29 -62 -33 -78
-39 -78 -28 0 5 24 25 52 45 47 31 60 35 116 35 35 0 61 -4 58 -9z m41 -7 c-3
-3 -12 -4 -19 -1 -8 3 -5 6 6 6 11 1 17 -2 13 -5z"/>
<path d="M11827 5693 c-4 -3 -7 -11 -7 -17 0 -6 5 -5 12 2 6 6 9 14 7 17 -3 3
-9 2 -12 -2z"/>
<path d="M12040 5680 l-25 -8 27 -1 c15 -1 30 4 33 9 7 11 0 11 -35 0z"/>
<path d="M11525 5561 c-3 -5 -1 -12 4 -15 5 -3 11 1 15 9 6 16 -9 21 -19 6z"/>
<path d="M6768 5511 c-64 -40 -93 -103 -93 -196 1 -110 47 -180 136 -207 56
-16 113 3 164 56 82 85 88 227 13 312 -64 72 -141 85 -220 35z m136 -226 c-26
-18 -29 -11 -7 14 10 12 19 17 21 11 2 -6 -4 -17 -14 -25z"/>
<path d="M7064 5476 c14 -21 26 -43 26 -49 0 -6 3 -8 6 -5 7 8 -21 61 -42 78
-9 8 -5 -3 10 -24z"/>
<path d="M11501 5444 c0 -11 3 -14 6 -6 3 7 2 16 -1 19 -3 4 -6 -2 -5 -13z"/>
<path d="M11861 5400 c0 -8 3 -30 8 -48 9 -29 7 -33 -18 -46 -37 -20 -53 -40
-45 -59 5 -15 8 -15 31 0 21 14 26 14 34 2 7 -12 9 -12 9 1 0 13 2 13 9 1 5
-8 7 -21 3 -29 -4 -10 -1 -13 7 -8 7 5 10 14 7 21 -2 7 4 24 16 37 l20 23 -25
9 c-19 7 -29 22 -40 60 -8 28 -15 44 -16 36z"/>
<path d="M7112 5330 c0 -14 2 -19 5 -12 2 6 2 18 0 25 -3 6 -5 1 -5 -13z"/>
<path d="M7080 5201 c-7 -17 -32 -49 -56 -71 -48 -44 -44 -55 6 -14 30 25 76
101 67 110 -2 3 -10 -9 -17 -25z"/>
<path d="M11743 5185 c-28 -21 -7 -30 29 -13 29 13 30 15 10 20 -11 3 -29 0
-39 -7z"/>
<path d="M7615 3465 c0 -946 1 -1332 2 -857 2 475 2 1249 0 1720 -1 471 -2 83
-2 -863z"/>
<path d="M11821 5131 c-9 -6 -3 -10 20 -13 42 -7 67 1 47 13 -17 11 -49 11
-67 0z"/>
<path d="M11695 5100 c-18 -8 -18 -9 5 -9 14 0 34 4 45 9 18 8 18 9 -5 9 -14
0 -34 -4 -45 -9z"/>
<path d="M6930 5080 c-18 -12 -2 -12 25 0 13 6 15 9 5 9 -8 0 -22 -4 -30 -9z"/>
<path d="M11688 5073 c6 -2 18 -2 25 0 6 3 1 5 -13 5 -14 0 -19 -2 -12 -5z"/>
<path d="M12760 5061 c0 -5 7 -12 16 -15 14 -5 15 -4 4 9 -14 17 -20 19 -20 6z"/>
<path d="M12849 4906 c5 -11 14 -22 21 -24 9 -3 11 1 7 12 -4 10 -7 21 -7 25
0 4 -6 8 -14 8 -10 0 -12 -6 -7 -21z"/>
<path d="M13634 4770 c0 -85 2 -120 3 -77 2 42 2 112 0 155 -1 42 -3 7 -3 -78z"/>
<path d="M11910 4720 c-8 -5 -22 -7 -32 -4 -9 2 -19 0 -23 -6 -3 -5 -31 -10
-61 -10 -40 0 -55 -4 -52 -12 11 -33 204 -6 216 30 4 14 -26 16 -48 2z"/>
<path d="M835 4308 c-80 -29 -129 -97 -129 -183 0 -119 102 -208 219 -191 87
14 155 89 155 174 l0 42 -95 0 -95 0 0 -35 0 -35 55 0 c62 0 70 -12 32 -48
-30 -29 -77 -37 -122 -22 -94 31 -102 181 -11 224 55 26 93 19 143 -27 20 -18
26 -19 48 -7 34 18 32 32 -10 68 -53 47 -126 63 -190 40z"/>
<path d="M1477 4313 c-4 -3 -7 -89 -7 -190 l0 -183 35 0 35 0 0 190 0 190 -28
0 c-16 0 -32 -3 -35 -7z"/>
<path d="M2723 4309 c-43 -13 -73 -53 -73 -99 0 -52 23 -75 105 -107 53 -21
71 -34 73 -49 8 -53 -70 -73 -114 -29 l-25 25 -29 -22 c-16 -13 -29 -26 -29
-30 -1 -14 74 -57 112 -64 48 -8 119 17 141 51 21 32 20 97 -1 124 -10 12 -49
34 -88 50 -71 28 -88 48 -65 76 16 20 75 19 94 -1 14 -14 18 -13 41 3 28 21
28 30 -6 55 -30 22 -94 30 -136 17z"/>
<path d="M3013 4313 c-25 -5 -83 -55 -83 -72 0 -6 11 -17 25 -23 21 -9 29 -8
48 9 34 31 43 34 72 23 45 -17 31 -55 -40 -110 -78 -60 -105 -101 -105 -156
l0 -44 120 0 120 0 0 35 0 35 -80 0 c-44 0 -80 4 -80 8 0 15 24 39 82 81 65
47 78 66 78 113 0 74 -69 118 -157 101z"/>
<path d="M3255 4306 c-16 -7 -38 -23 -48 -34 -18 -20 -18 -21 14 -37 29 -16
33 -16 41 -1 11 19 68 22 86 4 31 -31 -6 -78 -60 -78 -24 0 -28 -4 -28 -30 0
-25 4 -30 25 -30 35 0 73 -20 78 -41 12 -47 -61 -80 -97 -44 -14 14 -19 14
-46 -7 l-31 -23 25 -21 c52 -45 148 -40 196 11 30 32 32 94 4 132 -21 28 -21
29 -3 52 39 48 16 121 -47 147 -41 17 -70 17 -109 0z"/>
<path d="M3570 4125 l0 -185 35 0 35 0 0 75 0 75 70 0 70 0 0 35 0 35 -70 0
-70 0 0 40 0 40 70 0 70 0 0 35 0 35 -105 0 -105 0 0 -185z"/>
<path d="M3820 4125 l0 -185 110 0 110 0 0 35 0 35 -75 0 -75 0 0 40 0 40 75
0 75 0 0 35 0 35 -75 0 -75 0 0 40 0 40 75 0 75 0 0 35 0 35 -110 0 -110 0 0
-185z"/>
<path d="M1183 4220 c-49 -29 -67 -65 -68 -131 0 -43 5 -65 21 -85 51 -69 118
-89 184 -55 33 17 40 18 40 6 0 -10 11 -15 35 -15 l35 0 0 150 0 150 -35 0
c-25 0 -35 -4 -35 -15 0 -14 -3 -14 -30 0 -41 21 -108 19 -147 -5z m148 -69
c32 -33 37 -67 14 -110 -42 -83 -176 -34 -161 58 12 77 93 105 147 52z"/>
<path d="M1640 4214 c-41 -35 -60 -74 -60 -126 0 -62 28 -109 80 -135 54 -28
85 -29 128 -3 26 16 32 17 32 5 0 -10 11 -15 35 -15 l35 0 0 150 0 150 -35 0
c-25 0 -35 -4 -35 -16 0 -14 -2 -14 -22 0 -13 10 -44 16 -74 16 -42 0 -59 -5
-84 -26z m157 -58 c58 -50 22 -156 -53 -156 -46 0 -63 9 -79 41 -23 43 -18 77
14 110 37 36 79 38 118 5z"/>
<path d="M1926 4228 c4 -7 27 -40 51 -73 24 -32 43 -62 43 -66 0 -3 -22 -36
-50 -72 -27 -36 -50 -69 -50 -72 0 -3 18 -5 40 -5 35 0 42 4 70 45 17 25 34
45 38 45 4 -1 22 -21 40 -45 29 -40 37 -45 73 -45 46 0 46 -2 -18 82 -24 31
-43 62 -43 69 0 7 11 27 25 46 14 18 37 49 51 68 l26 35 -43 0 c-41 0 -46 -4
-74 -45 -16 -25 -33 -45 -36 -45 -3 0 -19 20 -37 45 -29 41 -35 45 -72 45 -30
0 -39 -3 -34 -12z"/>
<path d="M2230 4234 c0 -3 27 -68 60 -144 l60 -138 -25 -56 c-14 -31 -25 -61
-25 -66 0 -14 56 -12 67 3 11 13 163 388 163 400 0 4 -15 7 -34 7 -34 0 -34
-1 -73 -100 l-39 -101 -41 98 c-40 96 -41 98 -77 101 -20 2 -36 0 -36 -4z"/>
<path d="M10482 4090 c0 -14 2 -19 5 -12 2 6 2 18 0 25 -3 6 -5 1 -5 -13z"/>
<path d="M13265 3839 c-4 -6 -5 -12 -2 -15 2 -3 7 2 10 11 7 17 1 20 -8 4z"/>
<path d="M13210 3754 c-11 -17 -31 -55 -44 -85 -14 -30 -39 -79 -57 -109 -19
-32 -25 -49 -15 -41 10 8 24 27 32 43 8 15 35 52 59 83 30 36 40 55 30 55 -19
0 -19 4 2 43 l18 32 3 -28 3 -28 20 25 c26 33 24 46 -7 44 -16 -2 -32 -14 -44
-34z m-14 -81 c-10 -10 -19 5 -10 18 6 11 8 11 12 0 2 -7 1 -15 -2 -18z"/>
<path d="M13085 3430 c-8 -13 5 -13 25 0 13 8 13 10 -2 10 -9 0 -20 -4 -23
-10z"/>
<path d="M13025 3400 c-8 -13 5 -13 25 0 13 8 13 10 -2 10 -9 0 -20 -4 -23
-10z"/>
<path d="M6640 1275 c19 -19 36 -35 39 -35 3 0 -10 16 -29 35 -19 19 -36 35
-39 35 -3 0 10 -16 29 -35z"/>
<path d="M6697 1229 c7 -7 15 -10 18 -7 3 3 -2 9 -12 12 -14 6 -15 5 -6 -5z"/>
<path d="M6705 1161 l-30 -7 30 -7 c17 -4 183 -18 370 -31 187 -14 379 -28
428 -32 72 -5 87 -4 87 8 0 12 -24 16 -112 22 -167 9 -658 44 -704 50 -21 2
-52 1 -69 -3z"/>
<path d="M7621 1094 c0 -11 3 -14 6 -6 3 7 2 16 -1 19 -3 4 -6 -2 -5 -13z"/>
<path d="M7631 1054 c0 -11 3 -14 6 -6 3 7 2 16 -1 19 -3 4 -6 -2 -5 -13z"/>
<path d="M7640 1016 c0 -8 4 -17 9 -20 5 -4 7 3 4 14 -6 23 -13 26 -13 6z"/>
<path d="M7660 971 c0 -6 4 -13 10 -16 6 -3 7 1 4 9 -7 18 -14 21 -14 7z"/>
<path d="M7688 924 c30 -56 143 -144 184 -144 7 0 -10 11 -37 23 -30 14 -72
47 -104 83 -30 32 -49 50 -43 38z"/>
<path d="M10790 851 c12 -9 11 -11 -7 -11 -13 0 -23 -4 -23 -9 0 -5 33 -12 73
-15 100 -8 2395 -106 2485 -106 79 0 96 14 30 25 l-42 7 49 19 c28 10 64 30
80 45 35 30 32 29 -60 -16 -66 -33 -77 -35 -190 -38 -66 -2 -597 17 -1180 42
-1047 45 -1149 50 -1203 62 -21 4 -24 3 -12 -5z"/>
<path d="M7882 722 c-31 -21 -31 -21 1003 -101 215 -17 591 -47 836 -66 479
-38 698 -44 644 -20 -16 8 -46 15 -65 15 -34 1 -34 2 -10 12 77 33 135 65 167
93 l36 31 -40 -4 c-24 -2 -44 1 -48 8 -4 7 -22 -3 -52 -30 -63 -59 -141 -92
-227 -97 -39 -3 -305 14 -591 36 -286 23 -639 50 -785 61 -401 30 -760 59
-810 65 -25 3 -51 1 -58 -3z"/>
<path d="M10309 683 c-13 -16 -12 -17 4 -4 16 13 21 21 13 21 -2 0 -10 -8 -17
-17z"/>
<path d="M8988 683 c7 -3 16 -2 19 1 4 3 -2 6 -13 5 -11 0 -14 -3 -6 -6z"/>
<path d="M9078 673 c6 -2 18 -2 25 0 6 3 1 5 -13 5 -14 0 -19 -2 -12 -5z"/>
<path d="M9738 623 c6 -2 18 -2 25 0 6 3 1 5 -13 5 -14 0 -19 -2 -12 -5z"/>
</g>
</svg>
